<?xml version="1.0" encoding="utf-8"?>
<!-- Generator: Adobe Illustrator 24.0.2, SVG Export Plug-In . SVG Version: 6.00 Build 0)  -->
<svg version="1.1" baseProfile="basic" id="Layer_1"
	 xmlns="http://www.w3.org/2000/svg" xmlns:xlink="http://www.w3.org/1999/xlink" x="0px" y="0px" viewBox="0 0 85 85"
	 xml:space="preserve">
<style type="text/css">
	.st0{fill:#678CA8;}
	.st1{fill:#FBE4BF;}
</style>
<path class="st0" d="M73,85H12C5.4,85,0,79.6,0,73V12C0,5.4,5.4,0,12,0h61c6.6,0,12,5.4,12,12v61C85,79.6,79.6,85,73,85z"/>
<g>
	<path class="st1" d="M55.87,25.02c0.02-1.86-2.87-1.87-2.84,0c0.04,2.55,1.01,11-3.3,10.95c-3.85-0.04-2.85-8.14-2.86-10.86
		c0-1.9-2.88-1.9-2.84,0c0.01,0.14,0.01,0.3,0.01,0.45c-0.01,0.42-0.02,1.08-0.02,1.89c-0.11,3.59-0.59,8.49-1.94,8.49
		c-1.99,0-1.8-6.66-1.83-8.77c-0.01-0.34-0.11-0.61-0.26-0.83c0.18-0.57,0.06-1.24-0.58-1.65c-7.93-4.28-14.8,7.76-9.38,12.58
		c1.64,1.46,4.31,1.62,6.37,0.13c0.58-0.43,1.1-1.05,1.56-1.8c0.58,1.77,1.76,2.77,4.2,2.8c1.88,0.02,2.97-0.99,3.61-2.48
		c0.91,1.47,2.27,2.49,4.31,2.49c2-0.01,3.2-1.12,3.95-2.72c0.53,1.26,1.53,2.43,3.36,2.48c2.18,0.06,3.28-1.45,3.73-2.9
		c0.09,0.09,0.18,0.18,0.27,0.27c1.6,1.55,3.49,2.89,5.69,3.36c3.9,0.82,7.08-0.18,9.66-3.1c1.22-1.38-0.05-2.3-1.27-0.91
		c-2.81,3.18-7.68,2.2-11.05-0.47c-0.4-0.32-0.87-0.74-1.37-1.22c0.48-0.01,0.99-0.06,1.56-0.16c1.74-0.3,2.88-0.63,5.22-1.85
		c2.82-1.46,5.88-3.85,5.9-7.9c0.02-3.71-4.61-7.27-8.41-6.21c-0.14,0.04-0.29,0.09-0.43,0.14c0.46-1.57,0.87-3.13,1.21-4.58
		c0.6-2.53,1.13-6.65-0.72-8.87c-1.81-2.17-5.07-2-6.8,0.61c-2.17,3.3-2.89,8.24-3.02,11.96c-0.14,4.11,0.48,9.05,1.14,13.25
		c-0.14-0.04-0.27-0.06-0.37-0.04c-1.39,0.34-1.32,2.35-0.03,2.76c0.01,0.01,0.02,0.02,0.03,0.03c0.06,0.06,0.12,0.12,0.17,0.18
		c0.06,1.53,0.21,3.69-1.41,3.28C55.11,35.33,55.83,28,55.87,25.02z M33.08,35.85c-2.94-0.02-3.28-5.33-1.56-7.53
		c1.76-2.25,3.9-2.53,5.93-1.45c-0.02,0.1-0.04,0.2-0.04,0.3C37.34,29.73,37.53,35.88,33.08,35.85z M65.79,22.34
		c0.8-1.26,1.94-2.3,3.61-2.3c1.86,0,3.74,2.22,3.62,4.18c-0.16,2.59-2.52,4.02-4.38,4.91c-1.09,0.52-2.51,1.38-4.77,1.51
		c-0.76,0.05-1.42-0.05-2.06-0.21c0.07-0.17,0.14-0.35,0.24-0.53c0.7-1.41,1.33-2.86,1.95-4.3c0.02-0.06,0.05-0.13,0.08-0.19
		C64.6,24.36,65.16,23.33,65.79,22.34z M61.37,10.78c0.6-2.5,2.46-7.05,4.03-4.88c1.33,1.84,0.15,5.44-0.4,7.5
		c-1,3.8-2.38,8.13-4.03,12.02C60.39,20.52,60.22,15.59,61.37,10.78z"/>
	<path class="st1" d="M75.32,60.91c-2.26,1.3-5.01-2.24-7.42-5.47c-3.1-4.15-7.24-2.63-8.24-1.44c-0.78,0.92-0.88-0.35-1.22-1.09
		c-0.92-2.01-2.77-0.69-2.87,1c-0.09,1.56-0.81,3.38-1.85,5.29c-0.28-0.43-0.55-0.84-0.8-1.25c-0.96-1.55-1.73-2.86-2.35-3.99
		c0.06-0.09,0.11-0.18,0.15-0.26c3.77-5.05,6.49-10.58,0.89-12.48c-3.72-1.27-7.42,1.3-7.37,5.33c0.04,2.73,2,5.54,4.02,8.52
		c-0.01,0.01-0.01,0.02-0.02,0.03c-0.94,1.14-2.13,2.58-3.28,4c-1.92-3.41-3.8-6.25-4.37-7.49c-0.24-0.52-2.69-0.73-2.69,0.06
		c-0.04,4.67,0.52,13.82-2.71,13.83c-2.49,0.01-4.25-4.6-4.38-8.28c3.76-0.91,5.95-2.22,5.93-3.46c-0.06-3.5-6.57-3.45-7.87-0.26
		c-0.47,1.14-0.4,2.35-0.26,3.33c-0.39,0.09-0.8,0.18-1.23,0.28c-0.45-4.79-1.26-11.29-1.54-13.92c-0.11-1.02-1.85-1.01-1.86-0.01
		c-0.03,3.21,0.11,9.96,0.17,14.71c-3.46,0.87-6.91,1.86-7.92,2.5c-2.35,1.47-0.8,6.13,7.38,6.21c4.53,0.04,3.94-0.86,4.09-4.81
		c0-0.82-0.09-2.12-0.22-3.66c0.45-0.13,0.89-0.25,1.3-0.37c0.79,3.78,3.54,8.85,6.24,8.85c4.67,0,4.23-11.02,4.57-12.29
		c0.84,1.19,3,4.46,4.18,6.26c-1.68,2.13-3.04,3.97-3.03,4.36c0.04,2.1,8.13,2.4,7.01-0.23c-0.65-1.53-1.42-3.05-2.19-4.49
		c1.19-1.53,2.42-3.05,3.34-4.16c0.43,0.65,0.86,1.3,1.26,1.97c0.74,1.22,1.43,2.45,2.08,3.65c-3.75,5.83-9.34,11.96-9.4,14.42
		c-0.3,10.98,29.16,7.18,21.26-2.87c-2.01-2.56-4.05-5.18-5.94-7.7c0.58-1.65,0.92-5.15,2.06-6.77c1.82-2.6,3.95-2.22,5.85-0.17
		c3.64,3.89,6.6,5.79,10.4,3.55C77.73,61.36,77.27,59.78,75.32,60.91z M24.2,61.75c-0.08,2.46-4.95,2.2-4.93,0.03
		c0.01-0.73,2.3-1.73,4.92-2.63C24.19,60.19,24.2,61.08,24.2,61.75z M33.59,52.78c0.86,0.2,1.76,2.65-2.67,3.54
		c-0.03,0.01-0.07,0.01-0.1,0.02C30.92,54.05,31.75,52.34,33.59,52.78z M48.03,47.57c-0.22-2.11,2.53-3.13,3.79-1.43
		c0.84,1.33-0.31,3.91-1.94,6.51C48.46,49.89,48.12,48.5,48.03,47.57z M44.59,61.79c2.51,4.89-3.03,4.12-1.66,2.02
		c0.43-0.65,0.97-1.4,1.56-2.18C44.55,61.72,44.59,61.79,44.59,61.79z M46.07,75.6c-0.01-2.55,3.74-8.37,6.75-12.9
		c2.27,4.31,4,8.29,5.27,10.93C60.67,79.01,46.09,82.72,46.07,75.6z M54.44,60.28c1.17-1.76,2.02-3.08,2.12-3.53
		c0,0.16-0.14,3.87,0.06,6.64C55.85,62.33,55.11,61.28,54.44,60.28z"/>
	<path class="st1" d="M23.72,21.5c-0.01,0.07-0.01,0.14-0.01,0.22C23.7,25.1,23.73,27.31,24,37.79c0.02,1.02,1.86,1.05,1.86-0.07
		c0.24-3.97,0.38-6.76,0.48-8.88c0.15-3.39,0.16-5.06,0.14-7.12c0-0.18-0.01-0.34-0.03-0.5c9.45-0.89,18.93-1.44,28.4-1.53
		c1.79-0.01,1.79-1.93,0-1.92c-15.29,0.13-30.59,0.52-45.76,2.58c-1.73,0.24-1.82,3.04,0,2.87c0.34-0.03,0.67-0.06,1-0.09
		c0.13-0.01,0.25-0.04,0.37-0.09C14.86,22.47,19.29,21.95,23.72,21.5z"/>
</g>
</svg>
